<mxfile host="65bd71144e">
    <diagram id="7j8UWRSHu8wvOUwlP4y5" name="Page-1">
        <mxGraphModel dx="519" dy="724" grid="0" gridSize="10" guides="1" tooltips="1" connect="1" arrows="1" fold="1" page="0" pageScale="1" pageWidth="850" pageHeight="1100" math="0" shadow="0">
            <root>
                <mxCell id="0"/>
                <mxCell id="1" parent="0"/>
                <mxCell id="2" value="BEL" style="whiteSpace=wrap;html=1;aspect=fixed;fillColor=#18141D;" parent="1" vertex="1">
                    <mxGeometry x="240" y="440" width="80" height="80" as="geometry"/>
                </mxCell>
                <mxCell id="3" value="STX" style="whiteSpace=wrap;html=1;aspect=fixed;fillColor=#18141D;" parent="1" vertex="1">
                    <mxGeometry x="240" y="530" width="80" height="80" as="geometry"/>
                </mxCell>
                <mxCell id="5" value="Begin sequence." style="rounded=0;whiteSpace=wrap;html=1;fillColor=#18141D;" parent="1" vertex="1">
                    <mxGeometry x="330" y="440" width="270" height="170" as="geometry"/>
                </mxCell>
                <mxCell id="6" value="Message ID" style="whiteSpace=wrap;html=1;aspect=fixed;fillColor=#18141D;" parent="1" vertex="1">
                    <mxGeometry x="240" y="620" width="80" height="80" as="geometry"/>
                </mxCell>
                <mxCell id="7" value="Unique message identifier. Used for linking responses to messages." style="rounded=0;whiteSpace=wrap;html=1;fillColor=#18141D;" parent="1" vertex="1">
                    <mxGeometry x="330" y="620" width="270" height="80" as="geometry"/>
                </mxCell>
                <mxCell id="8" value="Data length" style="whiteSpace=wrap;html=1;aspect=fixed;fillColor=#18141D;" parent="1" vertex="1">
                    <mxGeometry x="240" y="710" width="80" height="80" as="geometry"/>
                </mxCell>
                <mxCell id="10" value="The length of the message after this byte until the end sequence." style="rounded=0;whiteSpace=wrap;html=1;fillColor=#18141D;" parent="1" vertex="1">
                    <mxGeometry x="330" y="710" width="270" height="80" as="geometry"/>
                </mxCell>
                <mxCell id="11" value="Message type" style="whiteSpace=wrap;html=1;aspect=fixed;fillColor=#18141D;" parent="1" vertex="1">
                    <mxGeometry x="240" y="800" width="80" height="80" as="geometry"/>
                </mxCell>
                <mxCell id="12" value="The type of message" style="rounded=0;whiteSpace=wrap;html=1;fillColor=#18141D;" parent="1" vertex="1">
                    <mxGeometry x="330" y="800" width="270" height="80" as="geometry"/>
                </mxCell>
                <mxCell id="13" value="Data 1" style="whiteSpace=wrap;html=1;aspect=fixed;fillColor=#18141D;" parent="1" vertex="1">
                    <mxGeometry x="240" y="890" width="80" height="80" as="geometry"/>
                </mxCell>
                <mxCell id="14" value="Data ..." style="whiteSpace=wrap;html=1;aspect=fixed;fillColor=#18141D;" parent="1" vertex="1">
                    <mxGeometry x="240" y="980" width="80" height="80" as="geometry"/>
                </mxCell>
                <mxCell id="15" value="Data N" style="whiteSpace=wrap;html=1;aspect=fixed;fillColor=#18141D;" parent="1" vertex="1">
                    <mxGeometry x="240" y="1070" width="80" height="80" as="geometry"/>
                </mxCell>
                <mxCell id="17" value="The data of the message. This data is ofcourse dependenpt on the type of message." style="rounded=0;whiteSpace=wrap;html=1;fillColor=#18141D;" parent="1" vertex="1">
                    <mxGeometry x="330" y="890" width="270" height="260" as="geometry"/>
                </mxCell>
                <mxCell id="20" value="BEL" style="whiteSpace=wrap;html=1;aspect=fixed;fillColor=#18141D;" vertex="1" parent="1">
                    <mxGeometry x="240" y="1160" width="80" height="80" as="geometry"/>
                </mxCell>
                <mxCell id="21" value="ETX" style="whiteSpace=wrap;html=1;aspect=fixed;fillColor=#18141D;" vertex="1" parent="1">
                    <mxGeometry x="240" y="1250" width="80" height="80" as="geometry"/>
                </mxCell>
                <mxCell id="22" value="End sequence." style="rounded=0;whiteSpace=wrap;html=1;fillColor=#18141D;" vertex="1" parent="1">
                    <mxGeometry x="330" y="1160" width="270" height="170" as="geometry"/>
                </mxCell>
            </root>
        </mxGraphModel>
    </diagram>
</mxfile>